<?xml version="1.0" encoding="UTF-8" standalone="no"?>
<svg
   width="500"
   zoomAndPan="magnify"
   viewBox="0 0 375 374.999991"
   height="500"
   preserveAspectRatio="xMidYMid meet"
   version="1.0"
   id="svg52"
   sodipodi:docname="entrack-logo.svg"
   inkscape:version="1.2.2 (732a01da63, 2022-12-09)"
   xmlns:inkscape="http://www.inkscape.org/namespaces/inkscape"
   xmlns:sodipodi="http://sodipodi.sourceforge.net/DTD/sodipodi-0.dtd"
   xmlns="http://www.w3.org/2000/svg"
   xmlns:svg="http://www.w3.org/2000/svg">
  <sodipodi:namedview
     id="namedview54"
     pagecolor="#505050"
     bordercolor="#eeeeee"
     borderopacity="1"
     inkscape:showpageshadow="0"
     inkscape:pageopacity="0"
     inkscape:pagecheckerboard="0"
     inkscape:deskcolor="#505050"
     showgrid="false"
     inkscape:zoom="0.6675088"
     inkscape:cx="251.68207"
     inkscape:cy="240.44627"
     inkscape:window-width="1920"
     inkscape:window-height="1111"
     inkscape:window-x="-9"
     inkscape:window-y="-9"
     inkscape:window-maximized="1"
     inkscape:current-layer="svg52" />
  <defs
     id="defs32">
    <inkscape:path-effect
       effect="powerclip"
       id="path-effect982"
       is_visible="true"
       lpeversion="1"
       inverse="true"
       flatten="false"
       hide_clip="false"
       message="Use fill-rule evenodd on &lt;b&gt;fill and stroke&lt;/b&gt; dialog if no flatten result after convert clip to paths." />
    <clipPath
       id="eca7bcc16c">
      <path
         d="M 25 120 L 349 120 L 349 256.5 L 25 256.5 Z M 25 120 "
         clip-rule="nonzero"
         id="path29" />
    </clipPath>
    <clipPath
       clipPathUnits="userSpaceOnUse"
       id="clipPath966">
      <g
         id="g980"
         style="display:none">
        <path
           fill="#ffffff"
           d="m 267.3125,154.20703 v 33.59766 h 60.93359 C 300.97656,148.38281 312.83203,154.20703 267.3125,154.20703"
           fill-opacity="1"
           fill-rule="nonzero"
           id="path968" />
        <path
           fill="#ffffff"
           d="m 201.36719,187.80469 h 38.3164 v -33.59766 h -38.3164 v 33.59766"
           fill-opacity="1"
           fill-rule="nonzero"
           id="path970" />
        <path
           fill="#ffffff"
           d="m 146.71094,187.80469 h 38.3164 v -33.59766 h -38.3164 v 33.59766"
           fill-opacity="1"
           fill-rule="nonzero"
           id="path972" />
        <path
           fill="#ffffff"
           d="M 92.070312,187.80469 H 130.38672 V 154.20703 H 92.070312 v 33.59766"
           fill-opacity="1"
           fill-rule="nonzero"
           id="path974" />
        <path
           fill="#ffffff"
           d="M 37.414062,187.80469 H 75.730469 V 154.20703 H 37.414062 v 33.59766"
           fill-opacity="1"
           fill-rule="nonzero"
           id="path976" />
        <path
           fill="#ffffff"
           d="m 37.414062,206.58984 v 10.36328 H 332.95312 V 206.58984 H 37.414062"
           fill-opacity="1"
           fill-rule="nonzero"
           id="path978" />
      </g>
      <path
         id="lpe_path-effect982"
         class="powerclip"
         d="M 20.875,115.994 H 353.73001 V 261.67578 H 20.875 Z m 246.4375,38.21303 v 33.59766 h 60.93359 C 300.97656,148.38281 312.83203,154.20703 267.3125,154.20703 m -65.94531,33.59766 h 38.3164 v -33.59766 h -38.3164 v 33.59766 m -54.65625,0 h 38.3164 v -33.59766 h -38.3164 v 33.59766 m -54.640628,0 H 130.38672 V 154.20703 H 92.070312 v 33.59766 m -54.65625,0 H 75.730469 V 154.20703 H 37.414062 v 33.59766 m 0,18.78515 v 10.36328 H 332.95312 V 206.58984 H 37.414062" />
    </clipPath>
  </defs>
  <path
     fill="#22d3ee"
     d="M 187.5 375 C 83.910156 375 0 290.507812 0 187.5 C 0 84.492188 83.910156 0 187.5 0 C 291.089844 0 375 83.910156 375 187.5 C 375 291.089844 290.507812 375 187.5 375 Z M 187.5 11.574219 C 90.277344 11.574219 11.574219 90.277344 11.574219 187.5 C 11.574219 284.722656 90.277344 363.425781 187.5 363.425781 C 284.722656 363.425781 363.425781 284.722656 363.425781 187.5 C 363.425781 90.277344 284.144531 11.574219 187.5 11.574219 Z M 187.5 11.574219 "
     fill-opacity="1"
     fill-rule="nonzero"
     id="path34" />
  <g
     clip-path="url(#clipPath966)"
     id="g38"
     inkscape:path-effect="#path-effect982">
    <path
       fill="#22d3ee"
       d="m 300.79687,249.14844 c 2.82813,-3.7461 4.23047,-8.40625 3.69532,-13.34766 h 30.67578 c 7.39844,0 13.39453,-6.00391 13.39453,-13.39453 0,-29.95703 1.10547,-32.98828 -2.36328,-38.03516 -34.12891,-49.67968 -26.82031,-44.57422 -47.40625,-44.57422 0,-6.01562 0.59765,-4.70312 -7.25,-10.18359 h 11.96094 c 1.64453,6.46484 7.9375,4.64453 7.9375,-2.3125 0,-7.09375 -6.45704,-8.76562 -7.98438,-2.10547 -10.79297,0 -15.98047,-1.43359 -17.28125,2.71485 -1.22266,3.89843 3.15625,5.52734 8.19531,9.0664 v 2.82031 H 33.589844 c -4.261719,0 -7.714844,3.46485 -7.714844,7.72266 v 80.55859 c 0,4.25782 3.453125,7.72266 7.714844,7.72266 h 2.855468 c -0.539062,4.91016 0.835938,9.58594 3.675782,13.34766 H 25.875 v 7.52734 h 322.6875 v -7.52734 z M 44.054688,235.80078 H 66.28125 c 3.261719,17.58984 -25.488281,17.57422 -22.226562,0 z m 26.160156,13.34766 c 1.628906,-2.17969 2.824218,-4.70313 3.410156,-7.46485 0.566406,2.76172 1.761719,5.28516 3.40625,7.46485 z m 10.75,-13.34766 h 22.214846 c 3.25781,17.58984 -25.488284,17.57422 -22.214846,0 z m 26.144536,13.34766 c 2.83984,-3.77735 4.21875,-8.45313 3.67968,-13.34766 h 19.86719 c -0.53906,4.89453 0.83594,9.57031 3.69141,13.34766 z m 31.17187,-13.34766 h 22.21484 c 3.25782,17.58984 -25.47656,17.57422 -22.21484,0 z m 26.14453,13.34766 c 1.64453,-2.17969 2.84375,-4.70313 3.41016,-7.46485 0.5664,2.76172 1.76562,5.28516 3.41015,7.46485 z m 10.75,-13.34766 h 22.21484 c 3.27344,17.58984 -25.47265,17.57422 -22.21484,0 z m 26.14844,13.34766 c 2.85547,-3.77735 4.23047,-8.45313 3.6914,-13.34766 h 25.12891 c -0.53516,4.89453 0.83984,9.57031 3.67969,13.34766 z m 36.42969,-13.34766 h 22.21484 c 3.27734,17.58984 -25.47266,17.57422 -22.21484,0 z m 26.14843,13.34766 c 1.64453,-2.17969 2.83985,-4.70313 3.41016,-7.46485 0.58203,2.76172 1.77734,5.28516 3.40625,7.46485 z m 10.75,-13.34766 h 22.23047 c 3.25781,17.58984 -25.49219,17.57422 -22.23047,0"
       fill-opacity="1"
       fill-rule="nonzero"
       id="path36"
       inkscape:original-d="M 300.796875 249.148438 C 303.625 245.402344 305.027344 240.742188 304.492188 235.800781 L 335.167969 235.800781 C 342.566406 235.800781 348.5625 229.796875 348.5625 222.40625 C 348.5625 192.449219 349.667969 189.417969 346.199219 184.371094 C 312.070312 134.691406 319.378906 139.796875 298.792969 139.796875 C 298.792969 133.78125 299.390625 135.09375 291.542969 129.613281 L 303.503906 129.613281 C 305.148438 136.078125 311.441406 134.257812 311.441406 127.300781 C 311.441406 120.207031 304.984375 118.535156 303.457031 125.195312 C 292.664062 125.195312 287.476562 123.761719 286.175781 127.910156 C 284.953125 131.808594 289.332031 133.4375 294.371094 136.976562 L 294.371094 139.796875 L 33.589844 139.796875 C 29.328125 139.796875 25.875 143.261719 25.875 147.519531 L 25.875 228.078125 C 25.875 232.335938 29.328125 235.800781 33.589844 235.800781 L 36.445312 235.800781 C 35.90625 240.710938 37.28125 245.386719 40.121094 249.148438 L 25.875 249.148438 L 25.875 256.675781 L 348.5625 256.675781 L 348.5625 249.148438 Z M 44.054688 235.800781 L 66.28125 235.800781 C 69.542969 253.390625 40.792969 253.375 44.054688 235.800781 Z M 70.214844 249.148438 C 71.84375 246.96875 73.039062 244.445312 73.625 241.683594 C 74.191406 244.445312 75.386719 246.96875 77.03125 249.148438 Z M 80.964844 235.800781 L 103.179688 235.800781 C 106.4375 253.390625 77.691406 253.375 80.964844 235.800781 Z M 107.109375 249.148438 C 109.949219 245.371094 111.328125 240.695312 110.789062 235.800781 L 130.65625 235.800781 C 130.117188 240.695312 131.492188 245.371094 134.347656 249.148438 Z M 138.28125 235.800781 L 160.496094 235.800781 C 163.753906 253.390625 135.019531 253.375 138.28125 235.800781 Z M 164.425781 249.148438 C 166.070312 246.96875 167.269531 244.445312 167.835938 241.683594 C 168.402344 244.445312 169.601562 246.96875 171.246094 249.148438 Z M 175.175781 235.800781 L 197.390625 235.800781 C 200.664062 253.390625 171.917969 253.375 175.175781 235.800781 Z M 201.324219 249.148438 C 204.179688 245.371094 205.554688 240.695312 205.015625 235.800781 L 230.144531 235.800781 C 229.609375 240.695312 230.984375 245.371094 233.824219 249.148438 Z M 237.753906 235.800781 L 259.96875 235.800781 C 263.246094 253.390625 234.496094 253.375 237.753906 235.800781 Z M 263.902344 249.148438 C 265.546875 246.96875 266.742188 244.445312 267.3125 241.683594 C 267.894531 244.445312 269.089844 246.96875 270.71875 249.148438 Z M 274.652344 235.800781 L 296.882812 235.800781 C 300.140625 253.390625 271.390625 253.375 274.652344 235.800781 " />
  </g>
</svg>
