<svg xmlns="http://www.w3.org/2000/svg" xmlns:xlink="http://www.w3.org/1999/xlink" width="500" zoomAndPan="magnify" viewBox="0 0 375 374.999991" height="500" preserveAspectRatio="xMidYMid meet" version="1.0"><defs><clipPath id="eca7bcc16c"><path d="M 25 120 L 349 120 L 349 256.5 L 25 256.5 Z M 25 120 " clip-rule="nonzero"/></clipPath></defs><path fill="#22d3ee" d="M 187.5 375 C 83.910156 375 0 290.507812 0 187.5 C 0 84.492188 83.910156 0 187.5 0 C 291.089844 0 375 83.910156 375 187.5 C 375 291.089844 290.507812 375 187.5 375 Z M 187.5 11.574219 C 90.277344 11.574219 11.574219 90.277344 11.574219 187.5 C 11.574219 284.722656 90.277344 363.425781 187.5 363.425781 C 284.722656 363.425781 363.425781 284.722656 363.425781 187.5 C 363.425781 90.277344 284.144531 11.574219 187.5 11.574219 Z M 187.5 11.574219 " fill-opacity="1" fill-rule="nonzero"/><g clip-path="url(#eca7bcc16c)"><path fill="#22d3ee" d="M 300.796875 249.148438 C 303.625 245.402344 305.027344 240.742188 304.492188 235.800781 L 335.167969 235.800781 C 342.566406 235.800781 348.5625 229.796875 348.5625 222.40625 C 348.5625 192.449219 349.667969 189.417969 346.199219 184.371094 C 312.070312 134.691406 319.378906 139.796875 298.792969 139.796875 C 298.792969 133.78125 299.390625 135.09375 291.542969 129.613281 L 303.503906 129.613281 C 305.148438 136.078125 311.441406 134.257812 311.441406 127.300781 C 311.441406 120.207031 304.984375 118.535156 303.457031 125.195312 C 292.664062 125.195312 287.476562 123.761719 286.175781 127.910156 C 284.953125 131.808594 289.332031 133.4375 294.371094 136.976562 L 294.371094 139.796875 L 33.589844 139.796875 C 29.328125 139.796875 25.875 143.261719 25.875 147.519531 L 25.875 228.078125 C 25.875 232.335938 29.328125 235.800781 33.589844 235.800781 L 36.445312 235.800781 C 35.90625 240.710938 37.28125 245.386719 40.121094 249.148438 L 25.875 249.148438 L 25.875 256.675781 L 348.5625 256.675781 L 348.5625 249.148438 Z M 44.054688 235.800781 L 66.28125 235.800781 C 69.542969 253.390625 40.792969 253.375 44.054688 235.800781 Z M 70.214844 249.148438 C 71.84375 246.96875 73.039062 244.445312 73.625 241.683594 C 74.191406 244.445312 75.386719 246.96875 77.03125 249.148438 Z M 80.964844 235.800781 L 103.179688 235.800781 C 106.4375 253.390625 77.691406 253.375 80.964844 235.800781 Z M 107.109375 249.148438 C 109.949219 245.371094 111.328125 240.695312 110.789062 235.800781 L 130.65625 235.800781 C 130.117188 240.695312 131.492188 245.371094 134.347656 249.148438 Z M 138.28125 235.800781 L 160.496094 235.800781 C 163.753906 253.390625 135.019531 253.375 138.28125 235.800781 Z M 164.425781 249.148438 C 166.070312 246.96875 167.269531 244.445312 167.835938 241.683594 C 168.402344 244.445312 169.601562 246.96875 171.246094 249.148438 Z M 175.175781 235.800781 L 197.390625 235.800781 C 200.664062 253.390625 171.917969 253.375 175.175781 235.800781 Z M 201.324219 249.148438 C 204.179688 245.371094 205.554688 240.695312 205.015625 235.800781 L 230.144531 235.800781 C 229.609375 240.695312 230.984375 245.371094 233.824219 249.148438 Z M 237.753906 235.800781 L 259.96875 235.800781 C 263.246094 253.390625 234.496094 253.375 237.753906 235.800781 Z M 263.902344 249.148438 C 265.546875 246.96875 266.742188 244.445312 267.3125 241.683594 C 267.894531 244.445312 269.089844 246.96875 270.71875 249.148438 Z M 274.652344 235.800781 L 296.882812 235.800781 C 300.140625 253.390625 271.390625 253.375 274.652344 235.800781 " fill-opacity="1" fill-rule="nonzero"/></g><path fill="#ffffff" d="M 267.3125 154.207031 L 267.3125 187.804688 L 328.246094 187.804688 C 300.976562 148.382812 312.832031 154.207031 267.3125 154.207031 " fill-opacity="1" fill-rule="nonzero"/><path fill="#ffffff" d="M 201.367188 187.804688 L 239.683594 187.804688 L 239.683594 154.207031 L 201.367188 154.207031 L 201.367188 187.804688 " fill-opacity="1" fill-rule="nonzero"/><path fill="#ffffff" d="M 146.710938 187.804688 L 185.027344 187.804688 L 185.027344 154.207031 L 146.710938 154.207031 L 146.710938 187.804688 " fill-opacity="1" fill-rule="nonzero"/><path fill="#ffffff" d="M 92.070312 187.804688 L 130.386719 187.804688 L 130.386719 154.207031 L 92.070312 154.207031 L 92.070312 187.804688 " fill-opacity="1" fill-rule="nonzero"/><path fill="#ffffff" d="M 37.414062 187.804688 L 75.730469 187.804688 L 75.730469 154.207031 L 37.414062 154.207031 L 37.414062 187.804688 " fill-opacity="1" fill-rule="nonzero"/><path fill="#ffffff" d="M 37.414062 206.589844 L 37.414062 216.953125 L 332.953125 216.953125 L 332.953125 206.589844 L 37.414062 206.589844 " fill-opacity="1" fill-rule="nonzero"/></svg>